<svg>
<line x1="0.000000" y1="100.000000" x2="125.000000" y2="0.000000" stroke="black"/>
<line x1="0.000000" y1="100.000000" x2="125.000000" y2="200.000000" stroke="black"/>
<line x1="125.000000" y1="0.000000" x2="125.000000" y2="200.000000" stroke="black"/>
<line x1="125.000000" y1="0.000000" x2="250.000000" y2="0.000000" stroke="black"/>
<line x1="250.000000" y1="0.000000" x2="375.000000" y2="0.000000" stroke="black"/>
<line x1="250.000000" y1="0.000000" x2="375.000000" y2="200.000000" stroke="black"/>
<line x1="250.000000" y1="0.000000" x2="250.000000" y2="100.000000" stroke="black"/>
<line x1="375.000000" y1="0.000000" x2="500.000000" y2="100.000000" stroke="black"/>
<line x1="375.000000" y1="0.000000" x2="375.000000" y2="200.000000" stroke="black"/>
<line x1="500.000000" y1="100.000000" x2="375.000000" y2="200.000000" stroke="black"/>
<line x1="375.000000" y1="200.000000" x2="250.000000" y2="200.000000" stroke="black"/>
<line x1="250.000000" y1="200.000000" x2="125.000000" y2="200.000000" stroke="black"/>
<line x1="250.000000" y1="200.000000" x2="250.000000" y2="100.000000" stroke="black"/>
<line x1="125.000000" y1="200.000000" x2="250.000000" y2="100.000000" stroke="black"/>
<circle id="posto-saude" r="10.000000" cx="0.000000" cy="100.000000" fill="black" fill-opacity="1"/>
<circle id="posto-saude" r="10.000000" cx="125.000000" cy="0.000000" fill="black" fill-opacity="1"/>
<circle id="posto-saude" r="10.000000" cx="250.000000" cy="0.000000" fill="black" fill-opacity="1"/>
<circle id="posto-saude" r="10.000000" cx="375.000000" cy="0.000000" fill="black" fill-opacity="1"/>
<circle id="posto-saude" r="10.000000" cx="500.000000" cy="100.000000" fill="black" fill-opacity="1"/>
<circle id="posto-saude" r="10.000000" cx="375.000000" cy="200.000000" fill="black" fill-opacity="1"/>
<circle id="posto-saude" r="10.000000" cx="250.000000" cy="200.000000" fill="black" fill-opacity="1"/>
<circle id="posto-saude" r="10.000000" cx="125.000000" cy="200.000000" fill="black" fill-opacity="1"/>
<circle id="posto-saude" r="10.000000" cx="250.000000" cy="100.000000" fill="black" fill-opacity="1"/>
<line x1="0.000000" y1="100.000000" x2="125.000000" y2="0.000000" stroke="red"/>
<line x1="125.000000" y1="0.000000" x2="0.000000" y2="100.000000" stroke="red"/>
<line x1="125.000000" y1="0.000000" x2="250.000000" y2="0.000000" stroke="red"/>
<line x1="250.000000" y1="0.000000" x2="125.000000" y2="0.000000" stroke="red"/>
<line x1="250.000000" y1="0.000000" x2="375.000000" y2="0.000000" stroke="red"/>
<line x1="250.000000" y1="0.000000" x2="375.000000" y2="200.000000" stroke="red"/>
<line x1="250.000000" y1="0.000000" x2="250.000000" y2="100.000000" stroke="red"/>
<line x1="375.000000" y1="0.000000" x2="250.000000" y2="0.000000" stroke="red"/>
<line x1="375.000000" y1="0.000000" x2="500.000000" y2="100.000000" stroke="red"/>
<line x1="500.000000" y1="100.000000" x2="375.000000" y2="0.000000" stroke="red"/>
<line x1="375.000000" y1="200.000000" x2="250.000000" y2="0.000000" stroke="red"/>
<line x1="375.000000" y1="200.000000" x2="250.000000" y2="200.000000" stroke="red"/>
<line x1="250.000000" y1="200.000000" x2="375.000000" y2="200.000000" stroke="red"/>
<line x1="250.000000" y1="200.000000" x2="125.000000" y2="200.000000" stroke="red"/>
<line x1="125.000000" y1="200.000000" x2="250.000000" y2="200.000000" stroke="red"/>
<line x1="250.000000" y1="100.000000" x2="250.000000" y2="0.000000" stroke="red"/>
<circle id="posto-saude" r="10.000000" cx="0.000000" cy="100.000000" fill="black" fill-opacity="1"/>
<circle id="posto-saude" r="10.000000" cx="125.000000" cy="0.000000" fill="black" fill-opacity="1"/>
<circle id="posto-saude" r="10.000000" cx="250.000000" cy="0.000000" fill="black" fill-opacity="1"/>
<circle id="posto-saude" r="10.000000" cx="375.000000" cy="0.000000" fill="black" fill-opacity="1"/>
<circle id="posto-saude" r="10.000000" cx="500.000000" cy="100.000000" fill="black" fill-opacity="1"/>
<circle id="posto-saude" r="10.000000" cx="375.000000" cy="200.000000" fill="black" fill-opacity="1"/>
<circle id="posto-saude" r="10.000000" cx="250.000000" cy="200.000000" fill="black" fill-opacity="1"/>
<circle id="posto-saude" r="10.000000" cx="125.000000" cy="200.000000" fill="black" fill-opacity="1"/>
<circle id="posto-saude" r="10.000000" cx="250.000000" cy="100.000000" fill="black" fill-opacity="1"/>
</svg>